<?xml version="1.0" standalone="no"?>
<!DOCTYPE svg PUBLIC "-//W3C//DTD SVG 20010904//EN"
 "http://www.w3.org/TR/2001/REC-SVG-20010904/DTD/svg10.dtd">
<svg version="1.0" xmlns="http://www.w3.org/2000/svg"
 width="390.000000pt" height="483.000000pt" viewBox="0 0 390.000000 483.000000"
 preserveAspectRatio="xMidYMid meet">

<g transform="translate(0.000000,483.000000) scale(0.100000,-0.100000)"
fill="#000000" stroke="none">
<path d="M1855 4673 c-60 -19 -182 -57 -270 -85 -88 -28 -227 -72 -310 -98
-82 -27 -196 -63 -252 -81 -91 -28 -103 -34 -103 -54 0 -23 42 -39 270 -107
19 -6 38 -13 42 -17 4 -3 -4 -29 -17 -58 -27 -56 -55 -161 -55 -209 0 -21 -10
-41 -30 -62 -25 -27 -30 -40 -30 -83 0 -46 4 -55 36 -85 53 -51 123 -42 173
22 36 46 22 128 -27 157 -24 15 11 170 54 239 27 42 33 43 99 18 l27 -10 -26
-46 c-25 -44 -26 -54 -26 -189 0 -78 3 -145 7 -148 3 -4 8 -20 9 -36 7 -63 84
-182 163 -254 14 -12 35 -32 48 -44 13 -13 28 -23 32 -23 4 0 16 -9 26 -20 10
-11 34 -23 54 -26 20 -4 41 -10 46 -14 52 -36 316 -37 384 -1 11 6 28 11 38
11 20 0 133 78 170 117 12 12 27 23 33 23 6 0 9 4 5 9 -3 6 1 13 8 18 26 16
88 122 113 194 24 68 26 84 22 204 -5 136 -25 211 -58 217 -16 3 110 47 368
128 158 50 163 52 160 77 -3 22 -12 28 -68 45 -36 10 -155 48 -265 83 -452
144 -715 225 -727 224 -7 0 -62 -16 -123 -36z m665 -582 c0 -6 -4 -11 -10 -11
-5 0 -10 4 -10 9 0 5 -3 18 -7 28 -6 17 -6 17 10 1 9 -9 17 -21 17 -27z m-947
12 c-7 -2 -19 -2 -25 0 -7 3 -2 5 12 5 14 0 19 -2 13 -5z m45 -10 c-10 -2 -18
-9 -18 -14 0 -6 -5 -7 -11 -3 -14 8 8 24 31 23 11 -1 10 -3 -2 -6z m-163 -42
c-10 -32 -22 -25 -17 10 3 20 8 27 14 21 6 -6 7 -19 3 -31z m945 26 c0 -8 -14
-11 -45 -9 -54 5 -50 22 6 22 25 0 39 -5 39 -13z m-694 -18 c3 -5 -1 -9 -8 -9
-23 0 -58 12 -58 19 0 10 59 1 66 -10z m484 -19 c13 -8 13 -10 -2 -10 -9 0
-20 5 -23 10 -8 13 5 13 25 0z m349 -264 c-9 -8 -10 -6 -5 7 3 10 7 71 8 135
l2 117 3 -124 c3 -86 0 -128 -8 -135z m-1089 222 c0 -16 -3 -19 -11 -11 -6 6
-8 16 -5 22 11 17 16 13 16 -11z m875 2 c3 -5 1 -10 -4 -10 -6 0 -11 5 -11 10
0 6 2 10 4 10 3 0 8 -4 11 -10z m-452 -7 c-7 -2 -19 -2 -25 0 -7 3 -2 5 12 5
14 0 19 -2 13 -5z m140 -20 c-7 -2 -21 -2 -30 0 -10 3 -4 5 12 5 17 0 24 -2
18 -5z m-146 -9 c-3 -3 -12 -4 -19 -1 -8 3 -5 6 6 6 11 1 17 -2 13 -5z m206
-1 c-7 -2 -19 -2 -25 0 -7 3 -2 5 12 5 14 0 19 -2 13 -5z m420 -73 c3 -34 2
-47 -3 -35 -8 19 -14 103 -6 94 2 -2 6 -29 9 -59z m-1046 -92 c-3 -8 -6 -5 -6
6 -1 11 2 17 5 13 3 -3 4 -12 1 -19z m33 -124 c0 -8 -5 -12 -10 -9 -6 4 -8 11
-5 16 9 14 15 11 15 -7z m1010 -33 c0 -5 -6 -16 -13 -23 -8 -7 -16 -20 -20
-28 -4 -10 -6 -8 -6 7 -1 31 9 53 25 53 8 0 14 -4 14 -9z m-937 -21 c-3 -11
-9 -20 -14 -20 -10 0 -12 24 -2 33 13 13 21 7 16 -13z m38 -84 c5 3 9 0 9 -6
0 -15 -23 -7 -26 8 -1 7 0 8 3 2 2 -5 9 -8 14 -4z m767 -41 c-6 -14 -13 -23
-15 -21 -5 5 15 46 22 46 3 0 -1 -11 -7 -25z m-43 -35 c3 -5 -1 -10 -9 -10 -9
0 -16 5 -16 10 0 6 4 10 9 10 6 0 13 -4 16 -10z m-569 -23 c8 3 14 0 14 -5 0
-6 7 -18 16 -26 8 -9 11 -16 5 -16 -5 0 -16 7 -25 15 -8 9 -20 14 -27 13 -6
-2 -13 5 -14 16 -3 13 0 15 7 8 6 -6 17 -8 24 -5z m504 -17 c0 -5 -8 -10 -17
-10 -15 0 -16 2 -3 10 19 12 20 12 20 0z"/>
<path d="M747 3687 c-5 -13 3 -67 23 -170 6 -27 10 -66 10 -88 0 -21 9 -65 19
-96 11 -32 25 -92 31 -133 6 -41 22 -126 36 -188 l26 -113 52 -38 c28 -21 57
-45 65 -54 7 -10 18 -17 24 -17 15 0 320 -303 371 -368 77 -99 125 -167 125
-179 1 -7 5 -13 9 -13 5 0 15 -12 23 -27 8 -16 24 -39 37 -53 12 -14 39 -59
59 -100 20 -41 42 -82 49 -90 7 -8 15 -42 18 -75 14 -138 28 -320 36 -465 5
-85 14 -209 20 -275 5 -66 14 -172 19 -235 15 -183 25 -259 67 -480 4 -19 11
-41 16 -47 14 -17 45 -16 51 1 3 8 6 441 6 962 1 929 1 950 -19 1002 -11 29
-20 64 -20 78 0 14 -11 50 -25 80 -14 30 -25 58 -25 63 0 13 -30 70 -41 76 -5
4 -9 15 -9 27 0 23 -28 87 -47 106 -7 7 -16 25 -19 40 -4 15 -19 45 -34 67
-14 22 -34 57 -43 77 -10 20 -28 50 -40 65 -13 15 -39 51 -57 78 -54 79 -97
130 -224 261 -66 68 -133 130 -151 138 -17 8 -51 31 -75 50 -25 20 -49 36 -55
36 -5 0 -21 9 -35 20 -14 11 -31 20 -38 20 -7 0 -25 8 -39 17 -66 43 -185 68
-196 40z"/>
<path d="M3130 3693 c-19 -7 -162 -78 -218 -108 -24 -12 -56 -34 -70 -47 -15
-13 -40 -30 -56 -38 -33 -17 -256 -230 -256 -246 0 -5 -18 -28 -40 -52 -22
-23 -40 -46 -40 -50 0 -4 -16 -24 -36 -43 -19 -18 -44 -52 -54 -75 -11 -22
-26 -46 -34 -53 -8 -7 -18 -25 -21 -41 -3 -16 -13 -34 -21 -41 -8 -6 -14 -16
-14 -21 0 -6 -13 -29 -29 -53 -16 -24 -32 -54 -36 -67 -4 -12 -20 -48 -35 -78
-54 -109 -70 -148 -70 -168 0 -11 -4 -24 -10 -27 -5 -3 -10 -19 -10 -36 0 -16
-4 -37 -9 -47 -30 -58 -32 -106 -29 -1072 l3 -975 27 -3 c22 -3 28 2 32 20 3
13 11 48 17 78 15 67 26 172 39 350 5 74 14 173 20 220 16 127 29 301 39 525
5 125 14 223 24 260 9 33 16 79 17 102 0 23 4 45 10 48 5 3 23 34 40 69 16 35
37 69 45 76 8 7 15 18 15 25 0 6 9 20 20 30 11 10 20 26 20 36 0 10 14 34 30
52 17 19 30 39 30 43 0 5 23 33 50 61 28 29 50 56 50 60 0 5 18 27 40 51 22
23 40 46 40 50 0 13 192 202 204 202 6 0 33 23 60 50 27 28 53 50 58 50 4 0
22 12 38 26 16 15 40 32 52 38 17 9 25 24 31 61 5 28 22 104 38 170 16 66 29
130 29 143 0 12 9 60 19 105 29 122 41 207 41 281 l0 66 -37 -1 c-21 0 -45 -3
-53 -6z"/>
<path d="M127 3063 c-4 -8 1 -47 22 -178 10 -60 28 -132 39 -149 3 -5 7 -21 8
-35 10 -93 16 -139 24 -156 18 -44 23 -63 30 -134 4 -40 12 -76 17 -80 6 -3
10 -13 11 -21 2 -26 13 -74 22 -95 5 -11 11 -50 13 -88 3 -37 10 -74 17 -82 7
-8 16 -43 21 -78 16 -122 29 -191 38 -197 9 -5 28 -81 38 -153 3 -20 9 -40 14
-43 5 -3 9 -25 9 -50 0 -25 7 -55 15 -68 8 -12 18 -45 21 -72 4 -27 15 -82 25
-121 11 -40 19 -89 19 -108 0 -22 4 -34 10 -30 6 4 10 -6 10 -24 0 -17 4 -40
9 -53 5 -13 14 -48 21 -78 24 -103 31 -110 141 -131 35 -7 80 -20 99 -31 37
-19 56 -23 63 -10 2 4 3 2 1 -5 -2 -10 33 -25 46 -20 3 1 19 -8 37 -21 17 -12
41 -22 52 -22 12 0 21 -4 21 -9 0 -5 30 -24 66 -42 37 -18 79 -43 93 -54 32
-27 93 -60 104 -57 5 1 6 -2 3 -7 -8 -13 132 -127 152 -123 12 2 13 0 4 -6 -9
-6 6 -27 52 -75 35 -37 67 -67 72 -67 5 0 19 -17 32 -38 41 -66 89 -111 111
-105 13 3 21 1 21 -8 0 -21 18 3 23 31 l4 25 2 -27 c0 -15 -6 -33 -14 -42 -22
-22 -18 -60 9 -86 l25 -23 7 27 c3 14 1 40 -5 57 -6 19 -11 105 -11 205 0 104
-4 175 -10 179 -6 3 -10 48 -10 99 0 96 -8 159 -19 152 -3 -2 -5 47 -5 110 1
63 -3 117 -7 120 -5 3 -9 47 -9 99 0 52 -4 96 -9 99 -5 3 -7 15 -4 26 3 11 1
20 -3 20 -5 0 -10 53 -11 118 0 64 -6 155 -12 202 -6 47 -15 155 -19 240 -7
147 -18 200 -42 200 -5 0 -7 7 -4 15 4 8 1 15 -4 15 -6 0 -12 10 -14 23 -2 12
-9 21 -16 19 -8 -1 -11 1 -8 6 3 5 -3 19 -12 33 -9 13 -27 41 -38 64 -12 22
-27 39 -34 37 -6 -1 -9 2 -5 8 10 15 -76 120 -100 121 -20 0 -20 0 0 9 11 5
15 9 8 9 -6 1 -14 10 -18 21 -3 10 -28 42 -55 70 -26 27 -46 50 -44 50 2 0 -5
9 -16 20 -12 12 -26 18 -32 14 -6 -4 -8 -3 -5 3 7 12 -88 113 -105 113 -6 0
-9 3 -5 6 3 3 -15 24 -40 46 -25 22 -52 46 -60 54 -9 8 -43 33 -77 56 -33 23
-67 48 -74 55 -7 7 -18 13 -23 13 -5 0 -19 9 -31 20 -12 11 -30 20 -40 20 -10
0 -21 7 -24 15 -4 8 -12 15 -20 15 -8 0 -22 4 -32 9 -55 31 -123 59 -167 70
-27 7 -54 16 -60 21 -13 10 -96 34 -112 31 -6 -1 -14 3 -18 9 -7 12 -212 14
-218 3z m440 -103 c3 -11 10 -20 16 -20 6 0 8 -3 5 -6 -9 -8 -49 16 -43 26 3
4 -1 11 -7 13 -8 3 -5 6 5 6 11 1 21 -8 24 -19z m58 -29 c-6 -5 -25 10 -25 20
0 5 6 4 14 -3 8 -7 12 -15 11 -17z m-415 -11 c0 -5 -4 -10 -10 -10 -5 0 -10 5
-10 10 0 6 5 10 10 10 6 0 10 -4 10 -10z m-33 -47 c-3 -10 -5 -4 -5 12 0 17 2
24 5 18 2 -7 2 -21 0 -30z m573 12 c31 -16 41 -29 15 -19 -8 4 -22 1 -30 -6
-13 -11 -14 -10 -9 5 4 10 1 21 -7 26 -23 15 0 10 31 -6z m20 -39 c0 -11 -19
-15 -25 -6 -3 5 1 10 9 10 9 0 16 -2 16 -4z m-573 -48 c-3 -8 -6 -5 -6 6 -1
11 2 17 5 13 3 -3 4 -12 1 -19z m30 -80 c-3 -8 -6 -5 -6 6 -1 11 2 17 5 13 3
-3 4 -12 1 -19z m-20 -30 c-3 -8 -6 -5 -6 6 -1 11 2 17 5 13 3 -3 4 -12 1 -19z
m823 -12 c0 -3 -4 -8 -10 -11 -5 -3 -10 -1 -10 4 0 6 5 11 10 11 6 0 10 -2 10
-4z m69 -55 c19 -19 19 -19 -2 -25 -12 -3 -26 -1 -31 4 -7 7 -5 10 3 10 8 0
11 6 7 15 -7 20 0 19 23 -4z m-834 -111 c3 -5 2 -10 -4 -10 -5 0 -13 5 -16 10
-3 6 -2 10 4 10 5 0 13 -4 16 -10z m14 -53 c0 -21 -1 -21 -9 -2 -12 28 -12 37
0 30 6 -3 10 -16 9 -28z m951 23 c0 -5 -5 -10 -11 -10 -5 0 -7 5 -4 10 3 6 8
10 11 10 2 0 4 -4 4 -10z m23 -30 c-3 -11 -9 -20 -14 -20 -10 0 -12 24 -2 33
13 13 21 7 16 -13z m-963 -41 c0 -11 -4 -18 -10 -14 -5 3 -7 12 -3 20 7 21 13
19 13 -6z m1050 -38 c0 -6 -4 -13 -10 -16 -5 -3 -10 1 -10 9 0 9 5 16 10 16 6
0 10 -4 10 -9z m40 -25 c0 -3 -4 -8 -10 -11 -5 -3 -10 -1 -10 4 0 6 5 11 10
11 6 0 10 -2 10 -4z m-20 -21 c10 -12 10 -15 -4 -15 -9 0 -16 7 -16 15 0 8 2
15 4 15 2 0 9 -7 16 -15z m115 -107 c6 -4 2 -8 -7 -8 -10 0 -18 7 -18 17 0 9
3 12 8 7 4 -5 12 -12 17 -16z m-1148 -90 c-3 -7 -5 -2 -5 12 0 14 2 19 5 13 2
-7 2 -19 0 -25z m1188 22 c-7 -11 25 -70 37 -70 4 0 8 -5 8 -11 0 -17 -29 10
-46 42 -17 33 -18 49 -3 49 5 0 7 -4 4 -10z m-1135 -91 c0 -5 -5 -7 -12 -3 -8
5 -9 0 -6 -14 4 -12 2 -20 -3 -16 -15 9 -10 44 6 44 8 0 15 -5 15 -11z m7 -71
c-3 -8 -6 -5 -6 6 -1 11 2 17 5 13 3 -3 4 -12 1 -19z m1250 -70 c-3 -8 -6 -5
-6 6 -1 11 2 17 5 13 3 -3 4 -12 1 -19z m-1200 -120 c-3 -8 -6 -5 -6 6 -1 11
2 17 5 13 3 -3 4 -12 1 -19z m30 -20 c-3 -7 -5 -2 -5 12 0 14 2 19 5 13 2 -7
2 -19 0 -25z m-12 -89 c0 -32 -4 -59 -8 -59 -5 0 -6 16 -3 35 4 19 3 35 -2 35
-5 0 -7 14 -4 30 7 48 17 24 17 -41z m1202 -11 c-3 -7 -5 -2 -5 12 0 14 2 19
5 13 2 -7 2 -19 0 -25z m-20 -40 c-3 -8 -6 -5 -6 6 -1 11 2 17 5 13 3 -3 4
-12 1 -19z m35 -186 c-7 -46 -10 -56 -11 -30 0 20 -4 45 -7 55 -5 15 -4 16 6
3 9 -12 11 -6 6 30 -3 33 -2 40 5 27 7 -11 7 -41 1 -85z m-1155 -14 c-3 -8 -6
-5 -6 6 -1 11 2 17 5 13 3 -3 4 -12 1 -19z m-7 -38 c5 0 6 -8 3 -17 -6 -15 -7
-15 -14 3 -4 10 -7 26 -7 34 0 10 2 9 5 -2 2 -10 8 -18 13 -18z m1186 -65 c3
-26 0 -45 -6 -45 -11 0 -14 -103 -3 -114 4 -3 8 -14 9 -24 2 -9 4 -24 5 -32 1
-8 1 -30 1 -49 -3 -56 -16 -25 -17 39 -1 33 -4 62 -8 66 -9 9 -9 126 -1 177 8
47 16 41 20 -18z m-39 -72 c-3 -10 -5 -2 -5 17 0 19 2 27 5 18 2 -10 2 -26 0
-35z m-1057 -263 c0 -22 -2 -40 -4 -40 -2 0 -6 18 -8 40 -2 22 0 40 4 40 5 0
8 -18 8 -40z m1106 -16 c3 -15 7 -31 9 -34 2 -4 -2 -7 -10 -7 -18 0 -24 17
-18 51 6 32 12 29 19 -10z m-1076 -52 c0 8 50 -40 50 -47 0 -3 -7 -5 -16 -5
-8 0 -12 5 -9 10 3 6 -3 10 -14 10 -12 0 -21 4 -21 9 0 5 -3 18 -6 28 -5 15
-4 15 5 3 6 -8 11 -12 11 -8z m130 -62 c0 -5 -4 -10 -9 -10 -6 0 -13 5 -16 10
-3 6 1 10 9 10 9 0 16 -4 16 -10z m315 -130 c3 -5 2 -10 -4 -10 -5 0 -13 5
-16 10 -3 6 -2 10 4 10 5 0 13 -4 16 -10z m672 -52 c-3 -8 -6 -5 -6 6 -1 11 2
17 5 13 3 -3 4 -12 1 -19z m-579 -7 c3 -8 -1 -12 -9 -9 -7 2 -15 10 -17 17 -3
8 1 12 9 9 7 -2 15 -10 17 -17z m579 -78 c-2 -16 -4 -5 -4 22 0 28 2 40 4 28
2 -13 2 -35 0 -50z m-402 -23 c-3 -6 1 -7 9 -4 9 3 16 2 16 -4 0 -5 -9 -12
-20 -15 -13 -3 -20 0 -20 8 0 8 -8 16 -17 18 -11 3 -7 5 10 6 16 1 26 -3 22
-9z m407 -96 l-8 -59 -5 47 c-2 25 -1 44 4 41 4 -2 7 6 7 18 0 12 2 20 5 17 3
-2 1 -31 -3 -64z m-302 -4 c0 -22 -20 -26 -38 -8 -18 18 -15 23 13 26 19 1 25
-3 25 -18z m250 -84 c0 -39 -6 -30 -13 19 -4 27 -3 35 3 25 5 -8 10 -28 10
-44z m77 -28 c-2 -13 -4 -3 -4 22 0 25 2 35 4 23 2 -13 2 -33 0 -45z m-249 21
c-3 -8 -7 -3 -11 10 -4 17 -3 21 5 13 5 -5 8 -16 6 -23z m22 -29 c0 -5 -4 -10
-10 -10 -5 0 -10 5 -10 10 0 6 5 10 10 10 6 0 10 -4 10 -10z m17 -32 c-3 -8
-6 -5 -6 6 -1 11 2 17 5 13 3 -3 4 -12 1 -19z m120 0 c-3 -8 -6 -5 -6 6 -1 11
2 17 5 13 3 -3 4 -12 1 -19z m70 -95 c-2 -16 -4 -3 -4 27 0 30 2 43 4 28 2
-16 2 -40 0 -55z m-103 22 c3 -8 1 -15 -4 -15 -6 0 -10 7 -10 15 0 8 2 15 4
15 2 0 6 -7 10 -15z m77 -36 l-9 -34 -1 31 c-1 17 2 34 6 37 12 13 14 -1 4
-34z m54 -119 c3 -5 1 -10 -4 -10 -6 0 -11 5 -11 10 0 6 2 10 4 10 3 0 8 -4
11 -10z"/>
<path d="M3640 3049 c-196 -44 -264 -68 -412 -145 -37 -19 -70 -34 -73 -34 -3
1 -35 -18 -70 -42 -50 -33 -63 -47 -60 -63 3 -11 2 -14 -1 -7 -8 18 -27 15
-20 -4 3 -8 2 -12 -4 -9 -5 3 -20 -3 -32 -14 -12 -12 -25 -21 -30 -21 -11 0
-48 -32 -44 -39 2 -3 -5 -14 -16 -23 -10 -10 -18 -15 -18 -11 0 3 -23 -17 -51
-45 -28 -28 -48 -56 -44 -62 3 -5 0 -7 -8 -5 -17 7 -51 -30 -41 -46 5 -8 3
-10 -5 -4 -13 7 -58 -33 -54 -47 2 -5 -3 -8 -10 -8 -7 0 -20 -13 -30 -29 -9
-16 -28 -39 -42 -52 -13 -13 -25 -28 -25 -32 0 -8 -2 -11 -48 -67 -36 -43 -63
-95 -55 -104 4 -3 -1 -6 -10 -6 -10 0 -17 -6 -17 -14 0 -7 -11 -25 -25 -40
-14 -15 -25 -35 -25 -44 0 -10 -13 -32 -28 -49 -16 -17 -29 -37 -30 -44 0 -8
-3 -66 -7 -129 -3 -63 -12 -162 -20 -220 -16 -117 -24 -236 -31 -450 -3 -80
-9 -158 -14 -174 -6 -16 -10 -66 -10 -110 0 -45 -4 -86 -10 -92 -5 -5 -10 -69
-11 -142 -1 -73 -5 -134 -8 -137 -4 -2 -8 -43 -10 -91 -1 -47 -7 -97 -12 -111
-5 -13 -9 -76 -9 -139 0 -142 8 -146 78 -40 18 26 30 51 27 54 -3 3 -5 0 -5
-6 0 -7 -5 -12 -10 -12 -6 0 -5 8 2 19 7 11 15 19 19 18 13 -4 73 67 61 71
-14 4 -16 32 -3 32 5 0 12 -7 15 -17 6 -14 9 -14 27 6 11 11 17 26 14 31 -3 6
1 7 10 4 11 -5 18 0 22 15 3 11 9 21 14 21 5 0 23 13 39 29 25 23 28 30 15 35
-9 3 -14 2 -11 -2 3 -4 -4 -13 -15 -20 -25 -16 -24 -8 3 23 13 15 24 21 28 15
4 -6 14 -8 23 -4 18 7 23 24 7 24 -5 0 -10 -5 -10 -12 0 -6 -3 -9 -6 -6 -6 7
17 48 28 48 4 0 5 -7 2 -15 -4 -8 -1 -15 5 -15 6 0 11 7 11 15 0 8 6 14 13 13
6 -2 11 3 9 10 -1 6 2 12 7 12 5 0 16 6 24 14 7 8 31 24 53 35 21 12 34 21 29
21 -6 0 5 10 23 21 17 12 32 25 32 31 0 5 5 8 12 6 7 -3 35 11 62 29 28 18 54
33 59 33 5 0 23 11 41 25 18 14 38 25 44 25 6 0 33 11 61 26 28 14 55 23 60
20 5 -3 14 1 21 9 7 8 28 18 49 22 20 4 38 8 41 8 27 6 147 47 155 52 18 14
35 52 35 77 0 14 5 28 11 32 6 3 9 17 6 30 -2 13 -1 25 4 26 12 4 33 126 32
188 -1 39 2 49 8 35 l9 -20 -2 20 c-1 11 3 30 10 41 22 41 43 116 41 147 -1
18 3 45 10 60 6 16 11 44 11 62 0 19 8 49 19 67 10 18 21 56 24 83 7 51 18
110 36 180 6 22 13 54 16 70 4 17 10 39 15 50 18 47 31 145 20 164 -5 11 -10
26 -9 33 0 7 7 0 14 -17 16 -36 21 -25 29 60 3 33 12 83 20 110 8 28 19 77 26
110 12 65 14 72 23 95 6 16 15 84 22 165 3 27 9 51 15 53 5 2 10 18 10 36 0
18 6 55 14 82 8 27 17 75 20 107 l6 57 -67 -2 c-38 -1 -102 -10 -143 -19z
m165 -9 c-3 -5 -13 -10 -21 -10 -8 0 -12 5 -9 10 3 6 13 10 21 10 8 0 12 -4 9
-10z m22 -58 c2 -23 1 -24 -7 -7 -11 24 -13 51 -3 41 4 -4 8 -19 10 -34z
m-272 8 c-3 -5 -15 -10 -25 -10 -10 0 -22 -4 -25 -10 -8 -12 -35 -13 -35 -2 0
12 40 31 68 31 13 1 20 -3 17 -9z m252 -52 c-3 -8 -6 -5 -6 6 -1 11 2 17 5 13
3 -3 4 -12 1 -19z m-447 -6 c-14 -2 -28 -9 -32 -16 -6 -8 -8 -8 -8 1 0 17 31
32 49 25 12 -5 9 -8 -9 -10z m-55 -12 c3 -5 1 -10 -4 -10 -6 0 -11 5 -11 10 0
6 2 10 4 10 3 0 8 -4 11 -10z m476 -97 c-9 -16 -10 -15 -11 8 0 14 3 29 8 33
12 12 14 -22 3 -41z m-576 27 c3 -6 -1 -7 -9 -4 -18 7 -21 14 -7 14 6 0 13 -4
16 -10z m-5 -25 c0 -1 -6 -8 -14 -14 -11 -9 -15 -7 -19 8 -3 14 0 17 14 14 11
-3 19 -7 19 -8z m-119 -28 c-6 -8 -7 -18 -3 -22 4 -5 1 -5 -6 -1 -10 6 -10 11
-1 22 6 8 14 14 16 14 3 0 0 -6 -6 -13z m29 -17 c0 -5 -5 -10 -11 -10 -5 0 -7
5 -4 10 3 6 8 10 11 10 2 0 4 -4 4 -10z m-25 -60 c3 -5 2 -10 -4 -10 -5 0 -13
5 -16 10 -3 6 -2 10 4 10 5 0 13 -4 16 -10z m-157 -102 c15 -15 16 -28 2 -28
-5 0 -10 6 -10 14 0 8 -6 17 -12 19 -7 3 -8 6 -2 6 5 1 15 -4 22 -11z m-58
-53 c10 -12 10 -15 -4 -15 -9 0 -16 7 -16 15 0 8 2 15 4 15 2 0 9 -7 16 -15z
m-121 -116 c-27 -17 -41 -9 -18 10 14 11 26 15 28 9 2 -6 -3 -14 -10 -19z
m955 -73 c-3 -15 -8 -25 -11 -23 -2 3 -1 17 3 31 3 15 8 25 11 23 2 -3 1 -17
-3 -31z m-17 -88 c-3 -7 -5 -2 -5 12 0 14 2 19 5 13 2 -7 2 -19 0 -25z m-1097
-2 c0 -2 -7 -9 -15 -16 -13 -11 -14 -10 -9 4 5 14 24 23 24 12z m1087 -58 c-3
-8 -6 -5 -6 6 -1 11 2 17 5 13 3 -3 4 -12 1 -19z m-54 -166 c-7 -18 -9 -13
-16 33 l-6 40 13 -30 c8 -16 11 -35 9 -43z m-1143 45 c0 -5 -10 -6 -22 -2 -22
6 -22 6 -4 -9 19 -16 19 -16 -2 -16 -20 0 -30 19 -16 33 9 8 44 4 44 -6z m-80
-124 c-11 -17 -11 -17 -6 0 3 10 7 28 7 40 2 22 2 22 6 0 2 -12 -1 -30 -7 -40z
m1230 53 c0 -3 -4 -8 -10 -11 -5 -3 -10 -1 -10 4 0 6 5 11 10 11 6 0 10 -2 10
-4z m-29 -49 c-10 -9 -11 -8 -5 6 3 10 9 15 12 12 3 -3 0 -11 -7 -18z m-1231
-37 c5 0 7 8 4 18 -5 13 -4 14 4 3 6 -9 5 -22 -4 -40 -8 -14 -14 -33 -15 -41
0 -10 -3 -8 -9 5 -8 19 -9 18 -9 -4 -1 -13 -4 -22 -7 -18 -4 3 -3 18 0 34 6
21 9 24 17 12 7 -11 9 -9 9 9 0 12 -4 22 -10 22 -5 0 -6 8 -2 18 6 16 7 16 10
0 2 -10 7 -18 12 -18z m1210 -45 c0 -25 -3 -45 -8 -45 -4 0 -6 20 -4 45 2 25
6 45 8 45 2 0 4 -20 4 -45z m17 23 c-3 -8 -6 -5 -6 6 -1 11 2 17 5 13 3 -3 4
-12 1 -19z m-1224 -141 c8 -6 7 -7 -3 -4 -10 2 -15 18 -16 48 -1 44 -1 44 3 4
3 -22 10 -44 16 -48z m-26 -69 c-3 -7 -5 -2 -5 12 0 14 2 19 5 13 2 -7 2 -19
0 -25z m-20 -15 c-3 -10 -5 -4 -5 12 0 17 2 24 5 18 2 -7 2 -21 0 -30z m1208
-10 c-11 -46 -25 -51 -25 -10 0 27 4 37 16 37 13 0 15 -6 9 -27z m-22 -100
c-8 -52 -13 -54 -13 -5 0 23 4 42 9 42 6 0 7 -17 4 -37z m-1213 -152 c0 -6 -4
-13 -10 -16 -5 -3 -10 1 -10 9 0 9 5 16 10 16 6 0 10 -4 10 -9z m1180 -1 c0
13 1 13 10 0 5 -8 10 -19 10 -25 0 -5 -5 -3 -10 5 -9 13 -10 13 -10 0 0 -13
-1 -13 -10 0 -5 8 -10 20 -10 25 0 6 5 3 10 -5 9 -13 10 -13 10 0z m-15 -50
c-3 -5 -12 -10 -18 -10 -7 0 -6 4 3 10 19 12 23 12 15 0z m-68 -102 c-3 -8 -6
-5 -6 6 -1 11 2 17 5 13 3 -3 4 -12 1 -19z m43 10 c0 -7 -5 -20 -10 -28 -8
-12 -10 -9 -10 13 0 15 5 27 10 27 6 0 10 -6 10 -12z m-2 -94 c-3 -14 -5 -12
-10 9 -3 19 -2 25 4 19 6 -6 8 -18 6 -28z m-18 -2 c0 -15 -2 -15 -10 -2 -13
20 -13 33 0 25 6 -3 10 -14 10 -23z m0 -63 c0 -14 -17 -10 -23 5 -4 10 -1 13
9 9 7 -3 14 -9 14 -14z m-3 -61 c-3 -8 -6 -5 -6 6 -1 11 2 17 5 13 3 -3 4 -12
1 -19z m-1150 -40 c-3 -7 -5 -2 -5 12 0 14 2 19 5 13 2 -7 2 -19 0 -25z m1120
10 c-3 -8 -6 -5 -6 6 -1 11 2 17 5 13 3 -3 4 -12 1 -19z m-1100 -50 c-3 -7 -5
-2 -5 12 0 14 2 19 5 13 2 -7 2 -19 0 -25z m-7 -68 c0 -13 -1 -13 -10 0 -5 8
-10 22 -10 30 0 13 1 13 10 0 5 -8 10 -22 10 -30z m25 30 c3 -5 1 -10 -4 -10
-6 0 -11 5 -11 10 0 6 2 10 4 10 3 0 8 -4 11 -10z m928 -17 c-7 -2 -19 -2 -25
0 -7 3 -2 5 12 5 14 0 19 -2 13 -5z m-986 -65 c-3 -8 -6 -5 -6 6 -1 11 2 17 5
13 3 -3 4 -12 1 -19z m957 -12 c-8 -20 -34 -29 -34 -11 0 7 8 16 18 18 9 3 18
5 19 6 1 0 0 -5 -3 -13z m-947 -68 c-2 -13 -4 -3 -4 22 0 25 2 35 4 23 2 -13
2 -33 0 -45z m988 52 c-3 -5 -13 -10 -21 -10 -8 0 -12 5 -9 10 3 6 13 10 21
10 8 0 12 -4 9 -10z m-961 -109 c-4 -17 -9 -30 -11 -27 -3 2 -2 19 2 36 9 41
17 33 9 -9z m696 9 c0 -5 -4 -10 -10 -10 -5 0 -10 5 -10 10 0 6 5 10 10 10 6
0 10 -4 10 -10z m-30 -4 c0 -3 -4 -8 -10 -11 -5 -3 -10 -1 -10 4 0 6 5 11 10
11 6 0 10 -2 10 -4z m-93 -41 c8 -9 13 -19 10 -22 -6 -5 -37 21 -37 31 0 10
11 6 27 -9z m38 -3 c-3 -3 -11 0 -18 7 -9 10 -8 11 6 5 10 -3 15 -9 12 -12z
m-155 -64 c0 -7 -4 -19 -9 -26 -7 -11 -10 -10 -15 3 -3 9 -4 21 0 26 8 13 24
11 24 -3z m-40 -52 c0 -9 -40 -13 -46 -5 -3 5 6 9 20 9 14 0 26 -2 26 -4z
m-59 -34 c-12 -21 -51 -55 -51 -44 0 5 11 19 25 32 13 12 22 27 18 33 -3 6 -1
7 5 3 8 -5 9 -13 3 -24z m-414 -59 c-3 -10 -5 -4 -5 12 0 17 2 24 5 18 2 -7 2
-21 0 -30z m328 7 c3 -6 -1 -7 -9 -4 -18 7 -21 14 -7 14 6 0 13 -4 16 -10z
m-65 -4 c0 -3 -4 -8 -10 -11 -5 -3 -10 -1 -10 4 0 6 5 11 10 11 6 0 10 -2 10
-4z m-83 -143 c-4 -3 -1 -13 6 -22 11 -14 10 -14 -5 -2 -16 12 -16 31 -1 31 4
0 3 -3 0 -7z m-150 -86 c13 5 13 3 2 -16 -13 -19 -14 -19 -21 -3 -3 9 -7 22
-7 27 1 6 3 5 5 -2 3 -7 12 -9 21 -6z m73 -27 c0 -5 -4 -10 -10 -10 -5 0 -10
5 -10 10 0 6 5 10 10 10 6 0 10 -4 10 -10z m-126 -148 c-6 -4 -14 -14 -17 -22
-4 -10 -6 -8 -6 7 -1 12 5 23 12 26 16 6 24 -2 11 -11z"/>
<path d="M1720 128 c0 -7 5 -20 10 -28 8 -13 10 -12 10 3 0 9 0 20 1 24 0 4
-4 9 -10 11 -6 2 -11 -2 -11 -10z"/>
</g>
</svg>
